<svg width="31" height="31" viewBox="0 0 31 31" fill="none" xmlns="http://www.w3.org/2000/svg">
<path d="M15.8633 30.8601C24.1476 30.8601 30.8633 24.1444 30.8633 15.8601C30.8633 7.57584 24.1476 0.860107 15.8633 0.860107C7.57901 0.860107 0.863281 7.57584 0.863281 15.8601C0.863281 24.1444 7.57901 30.8601 15.8633 30.8601Z" fill="#3A559F"/>
<path d="M20.6157 14.084L20.314 16.697C20.3014 16.8163 20.2456 16.9268 20.157 17.0075C20.0683 17.0883 19.9532 17.1337 19.8333 17.1351H17.106L17.0924 24.8823C17.0933 24.9741 17.0581 25.0626 16.9943 25.1286C16.9305 25.1946 16.8432 25.2329 16.7515 25.2351H13.9884C13.9425 25.2351 13.897 25.2259 13.8547 25.2079C13.8124 25.1899 13.7742 25.1636 13.7424 25.1305C13.7105 25.0974 13.6857 25.0582 13.6694 25.0152C13.6531 24.9723 13.6456 24.9265 13.6475 24.8806V17.1351H11.602C11.5378 17.1344 11.4743 17.1211 11.4152 17.0959C11.3561 17.0707 11.3026 17.0341 11.2576 16.9882C11.2126 16.9423 11.1772 16.888 11.1532 16.8284C11.1293 16.7688 11.1173 16.705 11.1179 16.6408L11.1077 14.0277C11.1068 13.9633 11.1186 13.8992 11.1425 13.8393C11.1663 13.7794 11.2017 13.7248 11.2467 13.6786C11.2916 13.6324 11.3452 13.5955 11.4045 13.57C11.4637 13.5445 11.5273 13.5309 11.5918 13.53H13.6475V11.0073C13.6475 8.07886 15.3861 6.48511 17.9361 6.48511H20.0259C20.0905 6.48577 20.1544 6.49919 20.2138 6.52459C20.2732 6.54998 20.327 6.58686 20.3721 6.6331C20.4173 6.67934 20.4528 6.73404 20.4768 6.79406C20.5007 6.85407 20.5126 6.91822 20.5117 6.98283V9.1817C20.5126 9.24631 20.5007 9.31046 20.4768 9.37048C20.4528 9.43049 20.4173 9.48519 20.3721 9.53143C20.327 9.57767 20.2732 9.61455 20.2138 9.63995C20.1544 9.66534 20.0905 9.67876 20.0259 9.67943H18.7441C17.3583 9.67943 17.089 10.3612 17.089 11.3465V13.53H20.135C20.2043 13.5309 20.2726 13.5464 20.3354 13.5755C20.3983 13.6047 20.4542 13.6468 20.4996 13.6991C20.545 13.7515 20.5788 13.8128 20.5988 13.8791C20.6188 13.9455 20.6246 14.0153 20.6157 14.084Z" fill="white"/>
</svg>
