<svg width="31" height="31" viewBox="0 0 31 31" fill="none" xmlns="http://www.w3.org/2000/svg">
<g clip-path="url(#clip0_407_4984)">
<rect x="0.863281" y="0.860107" width="30" height="30" rx="15" fill="#EBF0F3"/>
<path d="M25.2464 14.2611H17.088C16.7282 14.2611 16.437 14.5523 16.437 14.9121V17.5202C16.437 17.88 16.7282 18.1712 17.088 18.1712H21.6833C21.1822 19.4774 20.24 20.5695 19.0451 21.2632L21.0023 24.6551C24.1415 22.8393 26.0002 19.6487 26.0002 16.0812C26.0002 15.5716 25.9616 15.2076 25.8888 14.8007C25.8289 14.4881 25.5591 14.2611 25.2464 14.2611Z" fill="#167EE6"/>
<path d="M16 22.0857C13.7516 22.0857 11.7901 20.8566 10.7366 19.0408L7.34473 20.9937C9.07064 23.9872 12.304 26.0001 16 26.0001C17.8158 26.0001 19.5246 25.5119 21.0021 24.6596V24.6553L19.0449 21.2635C18.1456 21.786 17.1092 22.0857 16 22.0857Z" fill="#12B347"/>
<path d="M20.9979 24.6596V24.6553L19.0407 21.2634C18.1456 21.7816 17.1092 22.0857 16 22.0857V26C17.8158 26 19.5246 25.5118 20.9979 24.6596Z" fill="#0F993E"/>
<path d="M9.91435 15.9999C9.91435 14.8907 10.2184 13.8543 10.7366 12.9592L7.34475 11.0063C6.48822 12.4753 6 14.1798 6 15.9999C6 17.8201 6.48822 19.5246 7.34475 20.9935L10.7366 19.0406C10.2141 18.1455 9.91435 17.1091 9.91435 15.9999Z" fill="#FFD500"/>
<path d="M16 9.91435C17.4646 9.91435 18.8137 10.4368 19.8629 11.3019C20.1242 11.5161 20.501 11.4989 20.7366 11.2634L22.5824 9.41756C22.8522 9.14775 22.8308 8.70664 22.5439 8.45824C20.7837 6.92505 18.4925 6 16 6C12.304 6 9.07064 8.01285 7.34473 11.0064L10.7366 12.9593C11.7901 11.1435 13.7516 9.91435 16 9.91435Z" fill="#FF4B26"/>
<path d="M19.863 11.3019C20.1242 11.5161 20.5011 11.4989 20.7366 11.2634L22.5824 9.41756C22.8522 9.14775 22.8308 8.70664 22.5439 8.45824C20.7837 6.92505 18.4925 6 16 6V9.91435C17.4647 9.91435 18.8137 10.4325 19.863 11.3019Z" fill="#D93F21"/>
</g>
<defs>
<clipPath id="clip0_407_4984">
<rect width="30" height="30" fill="white" transform="translate(0.863281 0.860107)"/>
</clipPath>
</defs>
</svg>
