<svg width="31" height="31" viewBox="0 0 31 31" fill="none" xmlns="http://www.w3.org/2000/svg">
<path d="M15.8633 30.8601C24.1476 30.8601 30.8633 24.1444 30.8633 15.8601C30.8633 7.57584 24.1476 0.860107 15.8633 0.860107C7.57901 0.860107 0.863281 7.57584 0.863281 15.8601C0.863281 24.1444 7.57901 30.8601 15.8633 30.8601Z" fill="#03A9F4"/>
<path d="M25.5793 9.83462C24.8485 10.1538 24.0754 10.3659 23.2839 10.4642C24.1182 9.96949 24.7419 9.1857 25.0366 8.26159C24.2557 8.72509 23.4012 9.05151 22.5102 9.22672C21.9642 8.64281 21.2552 8.23671 20.4753 8.06124C19.6953 7.88577 18.8807 7.94906 18.1372 8.24287C17.3937 8.53668 16.7559 9.04741 16.3066 9.70864C15.8573 10.3699 15.6174 11.151 15.6181 11.9504C15.6153 12.2555 15.6464 12.56 15.7109 12.8583C14.126 12.7805 12.5753 12.3691 11.1602 11.6512C9.74504 10.9332 8.49728 9.92485 7.4984 8.69186C6.98496 9.56898 6.82589 10.6091 7.05371 11.5996C7.28152 12.59 7.87901 13.4561 8.72405 14.0208C8.09331 14.0038 7.47593 13.8352 6.92405 13.5294V13.5728C6.92583 14.4922 7.24406 15.3829 7.82526 16.0953C8.40646 16.8077 9.21518 17.2983 10.1155 17.4846C9.77479 17.5741 9.42368 17.6179 9.07142 17.6149C8.81778 17.6196 8.56436 17.5971 8.3155 17.5478C8.57344 18.3385 9.07002 19.0298 9.73695 19.5268C10.4039 20.0237 11.2084 20.3018 12.0398 20.3228C10.6309 21.4241 8.89394 22.0223 7.10563 22.0221C6.787 22.0248 6.46853 22.0064 6.15234 21.9669C7.97577 23.1425 10.1012 23.7637 12.2708 23.755C19.603 23.755 23.6116 17.682 23.6116 12.4182C23.6116 12.2425 23.6116 12.0728 23.5977 11.903C24.3784 11.3396 25.0499 10.6387 25.5793 9.83462Z" fill="white"/>
</svg>
