<svg width="26" height="26" viewBox="0 0 26 26" fill="none" xmlns="http://www.w3.org/2000/svg">
<path d="M12.9993 8.33329C10.421 8.33329 8.33268 10.4216 8.33268 13C8.33268 15.5783 10.421 17.6666 12.9993 17.6666C15.5777 17.6666 17.666 15.5783 17.666 13C17.666 10.4216 15.5777 8.33329 12.9993 8.33329ZM23.4294 11.8333C22.8927 6.96829 19.031 3.10663 14.166 2.56996V1.33329C14.166 0.691626 13.641 0.166626 12.9993 0.166626C12.3577 0.166626 11.8327 0.691626 11.8327 1.33329V2.56996C6.96768 3.10663 3.10602 6.96829 2.56935 11.8333H1.33268C0.691016 11.8333 0.166016 12.3583 0.166016 13C0.166016 13.6416 0.691016 14.1666 1.33268 14.1666H2.56935C3.10602 19.0316 6.96768 22.8933 11.8327 23.43V24.6666C11.8327 25.3083 12.3577 25.8333 12.9993 25.8333C13.641 25.8333 14.166 25.3083 14.166 24.6666V23.43C19.031 22.8933 22.8927 19.0316 23.4294 14.1666H24.666C25.3077 14.1666 25.8327 13.6416 25.8327 13C25.8327 12.3583 25.3077 11.8333 24.666 11.8333H23.4294ZM12.9993 21.1666C8.48435 21.1666 4.83268 17.515 4.83268 13C4.83268 8.48496 8.48435 4.83329 12.9993 4.83329C17.5144 4.83329 21.166 8.48496 21.166 13C21.166 17.515 17.5144 21.1666 12.9993 21.1666Z" fill="#252525"/>
</svg>
