<svg width="54" height="64" viewBox="0 0 54 64" fill="none" xmlns="http://www.w3.org/2000/svg">
<path fill-rule="evenodd" clip-rule="evenodd" d="M27.0002 11.2039C33.0892 11.2039 38.0253 16.14 38.0253 22.2289C38.0253 28.3179 33.0892 33.2539 27.0002 33.2539C20.9112 33.2539 15.9753 28.3179 15.9753 22.2289C15.9753 16.1402 20.9112 11.2039 27.0002 11.2039ZM28.0002 42.4732V63.163L48.4089 55.2277V42.2892L32.4509 48.4942C31.9868 48.6737 31.4704 48.4819 31.2291 48.064L28.0002 42.4732ZM26.0002 63.1629V42.4732L22.7722 48.0644C22.6492 48.2767 22.4522 48.4362 22.219 48.5125C21.9858 48.5888 21.7326 48.5764 21.5079 48.4778L5.59169 42.2892V55.2275L26.0002 63.1629ZM48.9721 31.2719L28.4452 39.2534L32.5281 46.3252L53.0551 38.3437L48.9721 31.2719ZM25.5552 39.2534L5.02819 31.2719L0.945312 38.3437L21.4724 46.3252L25.5552 39.2534ZM27.0002 35.2539C21.5248 35.2539 16.8386 31.8754 14.9123 27.0893L7.34194 30.0328L27.0002 37.6765L46.6584 30.0328L39.0881 27.0893C37.1619 31.8753 32.4757 35.2539 27.0002 35.2539ZM47.1291 21.4922C47.6816 21.4922 48.1291 21.9399 48.1291 22.4922C48.1291 23.0444 47.6816 23.4922 47.1291 23.4922H42.4457C42.1805 23.4922 41.9261 23.3868 41.7386 23.1993C41.551 23.0117 41.4457 22.7574 41.4457 22.4922C41.4457 22.2269 41.551 21.9726 41.7386 21.7851C41.9261 21.5975 42.1805 21.4922 42.4457 21.4922H47.1291ZM26.0002 1.83691C26.0002 1.5717 26.1055 1.31734 26.2931 1.12981C26.4806 0.942271 26.735 0.836914 27.0002 0.836914C27.2654 0.836914 27.5198 0.942271 27.7073 1.12981C27.8948 1.31734 28.0002 1.5717 28.0002 1.83691V6.52054C28.0002 6.78576 27.8948 7.04011 27.7073 7.22765C27.5198 7.41518 27.2654 7.52054 27.0002 7.52054C26.735 7.52054 26.4806 7.41518 26.2931 7.22765C26.1055 7.04011 26.0002 6.78576 26.0002 6.52054V1.83691ZM15.9056 4.93329C15.7776 4.70454 15.745 4.43457 15.8148 4.18194C15.8846 3.9293 16.0512 3.71439 16.2785 3.5838C16.5058 3.45322 16.7753 3.4175 17.0288 3.48441C17.2822 3.55131 17.499 3.71543 17.6322 3.94116L19.9739 7.99729C20.1019 8.22604 20.1345 8.49601 20.0647 8.74864C19.9949 9.00127 19.8283 9.21619 19.601 9.34677C19.3738 9.47736 19.1042 9.51307 18.8507 9.44617C18.5973 9.37927 18.3805 9.21515 18.2473 8.98941L15.9056 4.93329ZM8.70856 12.6683C8.48171 12.5346 8.31689 12.3167 8.25005 12.062C8.1832 11.8074 8.21974 11.5366 8.35171 11.3087C8.48368 11.0809 8.70037 10.9145 8.95454 10.8457C9.20871 10.777 9.47975 10.8115 9.70856 10.9418L13.7646 13.2835C13.9886 13.4186 14.1506 13.6362 14.2158 13.8896C14.2809 14.1429 14.244 14.4118 14.1128 14.6381C13.9817 14.8645 13.767 15.0303 13.5148 15.0999C13.2626 15.1694 12.9932 15.1372 12.7646 15.01L8.70856 12.6683ZM6.34494 22.9658C6.07972 22.9658 5.82537 22.8604 5.63783 22.6729C5.45029 22.4854 5.34494 22.231 5.34494 21.9658C5.34494 21.7006 5.45029 21.4462 5.63783 21.2587C5.82537 21.0711 6.07972 20.9658 6.34494 20.9658H11.0284C11.5808 20.9658 12.0284 21.4135 12.0284 21.9658C12.0284 22.518 11.5808 22.9658 11.0284 22.9658H6.34494ZM36.2977 4.20429C36.4293 3.97535 36.6465 3.80806 36.9014 3.73919C37.1563 3.67033 37.4282 3.70552 37.6572 3.83704C37.8861 3.96864 38.0534 4.18577 38.1223 4.44069C38.1911 4.6956 38.156 4.96744 38.0244 5.19641L35.6827 9.25254C35.5511 9.4815 35.334 9.64883 35.0791 9.7177C34.8241 9.78657 34.5523 9.75135 34.3233 9.61979C34.0943 9.48822 33.927 9.27109 33.8582 9.01616C33.7893 8.76123 33.8245 8.48938 33.9561 8.26041L36.2977 4.20429ZM44.0288 11.3975C44.2576 11.2673 44.5287 11.2327 44.7828 11.3015C45.037 11.3702 45.2537 11.5367 45.3857 11.7645C45.5176 11.9923 45.5542 12.2631 45.4873 12.5178C45.4205 12.7725 45.2557 12.9904 45.0288 13.124L40.9727 15.4658C40.4961 15.7419 39.8856 15.5792 39.6094 15.1025C39.3333 14.6259 39.4962 14.0154 39.9727 13.7393L44.0288 11.3975ZM31.1747 17.2012L24.6438 23.7322L22.4151 20.9274C21.8668 20.2377 20.8633 20.1232 20.1737 20.6713C19.4839 21.2197 19.3693 22.223 19.9177 22.9128L23.1974 27.0402C23.7646 27.8525 24.9324 27.9637 25.6392 27.2568L33.4347 19.4614C34.0586 18.8373 34.0586 17.8254 33.4347 17.2012C32.8107 16.5772 31.7988 16.5772 31.1747 17.2012Z" fill="#E84242"/>
</svg>
