<svg width="56" height="56" viewBox="0 0 56 56" fill="none" xmlns="http://www.w3.org/2000/svg">
<path d="M24.0007 41.3333C24.0009 44.2641 24.7447 47.147 26.1625 49.7121C27.5803 52.2772 29.6257 54.4407 32.1074 56H10.1741C8.86954 56.0013 7.57927 55.7288 6.38675 55.1999C5.19423 54.6711 4.12603 53.8978 3.25127 52.93C2.37651 51.9623 1.71469 50.8216 1.30864 49.5819C0.902582 48.3422 0.76134 47.031 0.894051 45.7333L3.77405 16.9333C3.86727 15.9455 4.32669 15.0283 5.06198 14.3621C5.79726 13.6959 6.75519 13.3289 7.74738 13.3333H42.9207C43.9129 13.3289 44.8708 13.6959 45.6061 14.3621C46.3414 15.0283 46.8008 15.9455 46.8941 16.9333L47.7207 25.2266C45.6905 24.411 43.522 23.9945 41.3341 24C36.7383 24.0042 32.3319 25.8317 29.0822 29.0815C25.8325 32.3312 24.005 36.7375 24.0007 41.3333Z" fill="#E84242"/>
<path d="M36.0007 20C35.647 20 35.3079 19.8595 35.0578 19.6095C34.8078 19.3594 34.6673 19.0203 34.6673 18.6667V12C34.6673 9.52465 33.684 7.15067 31.9336 5.40034C30.1833 3.65 27.8093 2.66667 25.334 2.66667C22.8586 2.66667 20.4847 3.65 18.7343 5.40034C16.984 7.15067 16.0007 9.52465 16.0007 12V18.6667C16.0007 19.0203 15.8602 19.3594 15.6101 19.6095C15.3601 19.8595 15.0209 20 14.6673 20C14.3137 20 13.9746 19.8595 13.7245 19.6095C13.4745 19.3594 13.334 19.0203 13.334 18.6667V12C13.334 8.8174 14.5983 5.76515 16.8487 3.51472C19.0991 1.26428 22.1514 0 25.334 0C28.5166 0 31.5688 1.26428 33.8193 3.51472C36.0697 5.76515 37.334 8.8174 37.334 12V18.6667C37.334 19.0203 37.1935 19.3594 36.9435 19.6095C36.6934 19.8595 36.3543 20 36.0007 20ZM41.334 26.6667C38.4332 26.6667 35.5975 27.5268 33.1856 29.1384C30.7737 30.75 28.8938 33.0407 27.7838 35.7206C26.6737 38.4006 26.3832 41.3496 26.9491 44.1947C27.5151 47.0397 28.9119 49.6531 30.9631 51.7042C33.0143 53.7554 35.6276 55.1523 38.4727 55.7182C41.3177 56.2841 44.2667 55.9936 46.9467 54.8836C49.6267 53.7735 51.9173 51.8936 53.5289 49.4817C55.1405 47.0698 56.0006 44.2341 56.0006 41.3333C55.9961 37.4449 54.4494 33.717 51.6998 30.9675C48.9503 28.218 45.2224 26.6713 41.334 26.6667ZM48.9433 38.276L40.9433 46.276C40.6933 46.526 40.3542 46.6664 40.0006 46.6664C39.6471 46.6664 39.308 46.526 39.058 46.276L35.058 42.276C34.8151 42.0245 34.6807 41.6877 34.6838 41.3381C34.6868 40.9885 34.827 40.6541 35.0742 40.4069C35.3214 40.1597 35.6559 40.0195 36.0054 40.0164C36.355 40.0134 36.6918 40.1478 36.9433 40.3907L40.0006 43.448L47.058 36.3907C47.3095 36.1478 47.6463 36.0134 47.9959 36.0164C48.3454 36.0195 48.6799 36.1597 48.9271 36.4069C49.1743 36.6541 49.3145 36.9885 49.3175 37.3381C49.3206 37.6877 49.1862 38.0245 48.9433 38.276Z" fill="#E84242"/>
</svg>
