<svg width="56" height="40" viewBox="0 0 56 40" fill="none" xmlns="http://www.w3.org/2000/svg">
<path d="M55.82 19.2L51.4 9.2C51.2452 8.84536 50.9909 8.54323 50.6679 8.33023C50.3448 8.11724 49.9669 8.00252 49.58 8H38.88L39.52 2.22C39.5515 1.93941 39.5232 1.65534 39.437 1.38646C39.3509 1.11758 39.2087 0.87 39.02 0.66C38.833 0.452815 38.6047 0.287058 38.3498 0.17339C38.0949 0.0597224 37.8191 0.000659658 37.54 0H10C9.46957 0 8.96086 0.210714 8.58579 0.585787C8.21071 0.96086 8 1.46957 8 2C8 2.53043 8.21071 3.03914 8.58579 3.41421C8.96086 3.78929 9.46957 4 10 4H20C20.5304 4 21.0391 4.21071 21.4142 4.58579C21.7893 4.96086 22 5.46957 22 6C22 6.53043 21.7893 7.03914 21.4142 7.41421C21.0391 7.78929 20.5304 8 20 8H6C5.46957 8 4.96086 8.21071 4.58579 8.58579C4.21071 8.96086 4 9.46957 4 10C4 10.5304 4.21071 11.0391 4.58579 11.4142C4.96086 11.7893 5.46957 12 6 12H26C26.5304 12 27.0391 12.2107 27.4142 12.5858C27.7893 12.9609 28 13.4696 28 14C28 14.5304 27.7893 15.0391 27.4142 15.4142C27.0391 15.7893 26.5304 16 26 16H12C11.4696 16 10.9609 16.2107 10.5858 16.5858C10.2107 16.9609 10 17.4696 10 18C10 18.5304 10.2107 19.0391 10.5858 19.4142C10.9609 19.7893 11.4696 20 12 20H20C20.5304 20 21.0391 20.2107 21.4142 20.5858C21.7893 20.9609 22 21.4696 22 22C22 22.5304 21.7893 23.0391 21.4142 23.4142C21.0391 23.7893 20.5304 24 20 24H4C3.46957 24 2.96086 24.2107 2.58579 24.5858C2.21071 24.9609 2 25.4696 2 26C2 26.5304 2.21071 27.0391 2.58579 27.4142C2.96086 27.7893 3.46957 28 4 28H8C8.53043 28 9.03914 28.2107 9.41421 28.5858C9.78929 28.9609 10 29.4696 10 30C10 30.5304 9.78929 31.0391 9.41421 31.4142C9.03914 31.7893 8.53043 32 8 32H6C5.46957 32 4.96086 32.2107 4.58579 32.5858C4.21071 32.9609 4 33.4696 4 34C4 34.5304 4.21071 35.0391 4.58579 35.4142C4.96086 35.7893 5.46957 36 6 36H11.7C11.916 36.8435 12.327 37.6244 12.9 38.28C13.3856 38.8229 13.9806 39.2568 14.6458 39.5533C15.3111 39.8497 16.0317 40.002 16.76 40C17.9925 39.9648 19.1871 39.5664 20.1941 38.8548C21.201 38.1432 21.9754 37.15 22.42 36H37.7C37.916 36.8435 38.327 37.6244 38.9 38.28C39.3856 38.8229 39.9806 39.2568 40.6458 39.5533C41.3111 39.8497 42.0317 40.002 42.76 40C43.9925 39.9648 45.1871 39.5664 46.1941 38.8548C47.201 38.1432 47.9754 37.15 48.42 36H52.42C52.9144 36.003 53.3924 35.8227 53.7618 35.494C54.1311 35.1653 54.3656 34.7114 54.42 34.22L55.96 20.22C56.0148 19.8736 55.9661 19.5188 55.82 19.2ZM16.76 36C16.5942 36.0072 16.4288 35.9767 16.2764 35.9109C16.124 35.8451 15.9885 35.7456 15.88 35.62C15.723 35.4258 15.6081 35.201 15.5427 34.96C15.4773 34.719 15.4628 34.467 15.5 34.22C15.5511 33.6585 15.7935 33.1315 16.1867 32.7274C16.58 32.3232 17.1001 32.0664 17.66 32C17.8258 31.9928 17.9912 32.0233 18.1436 32.0891C18.296 32.1549 18.4315 32.2544 18.54 32.38C18.697 32.5742 18.8119 32.799 18.8773 33.04C18.9427 33.281 18.9572 33.533 18.92 33.78C18.8689 34.3415 18.6265 34.8685 18.2333 35.2726C17.84 35.6768 17.3199 35.9336 16.76 36ZM42.76 36C42.5942 36.0072 42.4288 35.9767 42.2764 35.9109C42.124 35.8451 41.9885 35.7456 41.88 35.62C41.723 35.4258 41.6081 35.201 41.5427 34.96C41.4773 34.719 41.4627 34.467 41.5 34.22C41.5511 33.6585 41.7935 33.1315 42.1867 32.7274C42.5799 32.3232 43.1001 32.0664 43.66 32C43.8258 31.9928 43.9912 32.0233 44.1436 32.0891C44.296 32.1549 44.4315 32.2544 44.54 32.38C44.697 32.5742 44.8119 32.799 44.8773 33.04C44.9427 33.281 44.9572 33.533 44.92 33.78C44.8689 34.3415 44.6265 34.8685 44.2333 35.2726C43.84 35.6768 43.3199 35.9336 42.76 36ZM51.76 22H42.92C42.6409 21.9993 42.3651 21.9403 42.1102 21.8266C41.8553 21.7129 41.627 21.5472 41.44 21.34C41.2513 21.13 41.1091 20.8824 41.023 20.6135C40.9368 20.3447 40.9085 20.0606 40.94 19.78L41.6 13.78C41.659 13.2922 41.8954 12.8431 42.2643 12.5185C42.6332 12.1939 43.1086 12.0165 43.6 12.02H48.26L52 20.32L51.76 22Z" fill="#E84242"/>
<path d="M4 20C4.53043 20 5.03914 19.7893 5.41421 19.4142C5.78929 19.0391 6 18.5304 6 18C6 17.4696 5.78929 16.9609 5.41421 16.5858C5.03914 16.2107 4.53043 16 4 16H2C1.46957 16 0.960859 16.2107 0.585786 16.5858C0.210714 16.9609 0 17.4696 0 18C0 18.5304 0.210714 19.0391 0.585786 19.4142C0.960859 19.7893 1.46957 20 2 20H4Z" fill="#E84242"/>
</svg>
