<svg width="52" height="64" viewBox="0 0 52 64" fill="none" xmlns="http://www.w3.org/2000/svg">
<path d="M51.3405 52.7765L48.4828 16.7629C48.3054 14.4425 46.3423 12.6256 44.0157 12.6256H38.3702V20.9902C38.3702 22.0261 37.5317 22.8646 36.4958 22.8646C35.4612 22.8646 34.6214 22.0261 34.6214 20.9902V12.6256H17.3775V20.9902C17.3775 22.0261 16.5378 22.8646 15.5032 22.8646C14.4673 22.8646 13.6288 22.0261 13.6288 20.9902V12.6256H7.98328C5.65666 12.6256 3.69353 14.4425 3.51616 16.7579L0.657157 52.7815C0.436032 55.6668 1.43691 58.5382 3.40241 60.66C5.36803 62.7816 8.15453 64 11.0473 64H40.9518C43.8445 64 46.631 62.7816 48.5967 60.6599C50.5622 58.5381 51.563 55.6666 51.3405 52.7765ZM34.444 34.4366L24.7499 44.1307C24.576 44.3052 24.3694 44.4436 24.1419 44.5379C23.9144 44.6322 23.6705 44.6807 23.4242 44.6805C23.1779 44.6807 22.9339 44.6323 22.7064 44.5379C22.4789 44.4436 22.2723 44.3052 22.0984 44.1307L17.555 39.5874C16.8228 38.8551 16.8228 37.6693 17.555 36.937C18.2873 36.2048 19.4744 36.2048 20.2054 36.937L23.4243 40.1546L31.7938 31.7851C32.5248 31.0541 33.7119 31.0541 34.4442 31.7851C35.1763 32.5174 35.1763 33.7044 34.444 34.4366ZM25.9995 0C19.1782 0 13.6289 5.5505 13.6289 12.3719V12.6255H17.3777V12.3719C17.3777 7.61725 21.245 3.74863 25.9997 3.74863C30.7543 3.74863 34.6217 7.61725 34.6217 12.3719V12.6255H38.3703V12.3719C38.3702 5.5505 32.8209 0 25.9995 0Z" fill="#E84242"/>
</svg>
