<svg width="64" height="64" viewBox="0 0 64 64" fill="none" xmlns="http://www.w3.org/2000/svg">
<g clip-path="url(#clip0_853_18921)">
<path d="M0.820312 34.2531L20.5757 43.1126L26.1517 35.6634L6.47624 28.0718L0.820312 34.2531Z" fill="#E84242"/>
<path d="M8.01562 56.2792L27.2974 63.7439V40.854L22.8296 46.8645C22.2584 47.6277 21.2829 47.8927 20.4137 47.5028L8.01562 41.9213V56.2792ZM32.9756 35.8178L39.2396 43.2711L63.1798 35.1575L59.5699 28.1233L32.9756 35.8178Z" fill="#E84242"/>
<path d="M31.373 40.3233V64L58.6496 56.147V41.0247L39.2647 47.5822C38.4702 47.8516 37.5426 47.606 37.0024 46.9632L31.373 40.3233ZM12.2773 25.9375L29.4906 32.5792L53.6364 25.593L44.9446 22.7947L44.4704 23.6012C43.9457 24.494 42.8356 24.8514 41.8892 24.4319L38.9815 23.1434C38.5263 23.4414 38.053 23.7107 37.5643 23.9498L37.2517 27.0298C37.1456 28.0708 36.2698 28.8729 35.2242 28.8729H28.2593C27.2138 28.8729 26.3379 28.0708 26.2318 27.0298L25.9192 23.9549C25.4305 23.7149 24.9572 23.4447 24.5022 23.1459L21.5943 24.4331C20.7662 24.8001 19.8122 24.5716 19.2352 23.9102L12.2773 25.9375Z" fill="#E84242"/>
<path d="M40.6421 13.8114C40.796 12.8753 40.796 11.9204 40.6421 10.9843C40.5797 10.6062 40.6251 10.2182 40.773 9.86463C40.9209 9.51109 41.1654 9.20635 41.4785 8.9853L43.4873 7.56732L41.8778 4.82995L39.5602 5.85709C39.2187 6.00846 38.842 6.06293 38.4716 6.01454C38.1011 5.96616 37.7511 5.81678 37.4599 5.58277C36.7042 4.9757 35.8558 4.49411 34.9472 4.15644C34.2194 3.88567 33.7086 3.21313 33.6298 2.43993L33.3823 0H30.0989L29.8516 2.43979C29.7729 3.21299 29.2621 3.87993 28.5343 4.1507C27.6256 4.4894 26.7772 4.9719 26.0216 5.57976C25.7305 5.81395 25.3806 5.96355 25.0101 6.01218C24.6397 6.0608 24.263 6.00658 23.9213 5.85545L21.6037 4.82913L19.9941 7.56677L22.003 8.98503C22.3161 9.20612 22.5605 9.51089 22.7085 9.86444C22.8564 10.218 22.9018 10.6061 22.8394 10.9842C22.6855 11.9203 22.6855 12.8753 22.8394 13.8114C22.9018 14.1895 22.8564 14.5776 22.7085 14.9311C22.5605 15.2847 22.3161 15.5894 22.003 15.8105L19.9941 17.2284L21.6036 19.9657L23.9213 18.9387C24.2628 18.7873 24.6394 18.7328 25.0098 18.7811C25.3803 18.8295 25.7303 18.9789 26.0215 19.2129C26.7771 19.82 27.6255 20.3016 28.5342 20.6392C29.262 20.9099 29.7727 21.5813 29.8515 22.3545L30.0988 24.793H33.3823L33.6296 22.3545C33.7083 21.5813 34.2191 20.915 34.9469 20.6442C35.8556 20.3057 36.704 19.8232 37.4596 19.2153C37.7507 18.9812 38.1006 18.8316 38.4711 18.783C38.8415 18.7344 39.2181 18.7887 39.5598 18.9398L41.8775 19.9661L43.4869 17.2284L41.478 15.8103C41.1651 15.5892 40.9207 15.2845 40.7729 14.931C40.625 14.5775 40.5797 14.1895 40.6421 13.8114C40.7189 13.3447 40.5149 14.5831 40.6421 13.8114C40.7959 12.877 40.5149 14.5831 40.6421 13.8114ZM31.7406 16.0152C29.7317 16.0152 28.1031 14.385 28.1031 12.374C28.1031 10.3631 29.7317 8.73285 31.7406 8.73285C33.7495 8.73285 35.3781 10.3631 35.3781 12.374C35.3781 14.385 33.7496 16.0152 31.7406 16.0152Z" fill="#E84242"/>
</g>
<defs>
<clipPath id="clip0_853_18921">
<rect width="64" height="64" fill="white"/>
</clipPath>
</defs>
</svg>
